<svg width="64" height="64" viewBox="0 0 64 64" fill="none" xmlns="http://www.w3.org/2000/svg">
<path opacity="0.2" d="M56 32C56 36.7468 54.5924 41.3869 51.9553 45.3337C49.3181 49.2805 45.5698 52.3566 41.1844 54.1731C36.799 55.9896 31.9734 56.4649 27.3178 55.5388C22.6623 54.6128 18.3859 52.327 15.0294 48.9706C11.673 45.6141 9.38721 41.3377 8.46116 36.6822C7.53512 32.0266 8.0104 27.201 9.8269 22.8156C11.6434 18.4302 14.7195 14.6819 18.6663 12.0447C22.6131 9.40758 27.2533 8 32 8C38.3652 8 44.4697 10.5286 48.9706 15.0294C53.4714 19.5303 56 25.6348 56 32Z" fill="#FACC15"/>
<path d="M57.9994 34.165C57.5745 39.1049 55.7475 43.8207 52.7335 47.7576C49.7195 51.6945 45.6437 54.6887 40.9858 56.3879C36.3279 58.0871 31.2816 58.4206 26.4405 57.3492C21.5995 56.2779 17.1651 53.8461 13.6592 50.3402C10.1532 46.8342 7.7215 42.3999 6.65012 37.5588C5.57874 32.7178 5.91227 27.6715 7.61147 23.0135C9.31067 18.3556 12.3049 14.2799 16.2417 11.2659C20.1786 8.25182 24.8945 6.42487 29.8344 5.99996C30.097 5.97829 30.3614 6.00857 30.6123 6.08906C30.8633 6.16955 31.0959 6.29868 31.2969 6.46907C31.498 6.63947 31.6635 6.84779 31.784 7.08215C31.9045 7.31651 31.9777 7.57232 31.9994 7.83496C32.0211 8.0976 31.9908 8.36194 31.9103 8.61289C31.8298 8.86383 31.7007 9.09646 31.5303 9.2975C31.3599 9.49854 31.1516 9.66405 30.9172 9.78458C30.6828 9.9051 30.427 9.97829 30.1644 9.99996C25.9834 10.3592 21.9919 11.9051 18.6597 14.4559C15.3274 17.0066 12.793 20.456 11.3547 24.3983C9.91637 28.3405 9.63393 32.6116 10.5406 36.7089C11.4473 40.8062 13.5054 44.5593 16.4727 47.5267C19.44 50.494 23.1932 52.5521 27.2905 53.4587C31.3878 54.3654 35.6588 54.083 39.6011 52.6446C43.5433 51.2063 46.9927 48.6719 49.5435 45.3397C52.0942 42.0074 53.6402 38.016 53.9994 33.835C54.0432 33.3045 54.2958 32.8132 54.7019 32.4691C55.1079 32.1249 55.634 31.9562 56.1644 32C56.6948 32.0437 57.1862 32.2964 57.5303 32.7024C57.8744 33.1084 58.0432 33.6345 57.9994 34.165ZM29.9994 18V32C29.9994 32.5304 30.2101 33.0391 30.5852 33.4142C30.9603 33.7892 31.469 34 31.9994 34H45.9994C46.5298 34 47.0385 33.7892 47.4136 33.4142C47.7887 33.0391 47.9994 32.5304 47.9994 32C47.9994 31.4695 47.7887 30.9608 47.4136 30.5857C47.0385 30.2107 46.5298 30 45.9994 30H33.9994V18C33.9994 17.4695 33.7887 16.9608 33.4136 16.5857C33.0385 16.2107 32.5298 16 31.9994 16C31.469 16 30.9603 16.2107 30.5852 16.5857C30.2101 16.9608 29.9994 17.4695 29.9994 18ZM39.9994 12C40.5927 12 41.1728 11.824 41.6661 11.4944C42.1595 11.1647 42.544 10.6962 42.771 10.148C42.9981 9.59983 43.0575 8.99663 42.9418 8.41469C42.826 7.83275 42.5403 7.2982 42.1207 6.87864C41.7012 6.45908 41.1666 6.17336 40.5847 6.0576C40.0027 5.94185 39.3995 6.00126 38.8513 6.22832C38.3032 6.45538 37.8346 6.8399 37.505 7.33325C37.1753 7.8266 36.9994 8.40662 36.9994 8.99996C36.9994 9.79561 37.3155 10.5587 37.8781 11.1213C38.4407 11.6839 39.2037 12 39.9994 12ZM48.9994 18C49.5927 18 50.1728 17.824 50.6661 17.4944C51.1595 17.1647 51.544 16.6962 51.771 16.148C51.9981 15.5998 52.0575 14.9966 51.9418 14.4147C51.826 13.8327 51.5403 13.2982 51.1207 12.8786C50.7012 12.4591 50.1666 12.1734 49.5847 12.0576C49.0027 11.9418 48.3995 12.0013 47.8513 12.2283C47.3032 12.4554 46.8346 12.8399 46.505 13.3332C46.1753 13.8266 45.9994 14.4066 45.9994 15C45.9994 15.7956 46.3155 16.5587 46.8781 17.1213C47.4407 17.6839 48.2037 18 48.9994 18ZM54.9994 27C55.5927 27 56.1728 26.824 56.6661 26.4944C57.1595 26.1647 57.544 25.6962 57.771 25.148C57.9981 24.5998 58.0575 23.9966 57.9418 23.4147C57.826 22.8327 57.5403 22.2982 57.1207 21.8786C56.7012 21.4591 56.1666 21.1734 55.5847 21.0576C55.0027 20.9418 54.3995 21.0013 53.8513 21.2283C53.3032 21.4554 52.8346 21.8399 52.505 22.3332C52.1753 22.8266 51.9994 23.4066 51.9994 24C51.9994 24.7956 52.3155 25.5587 52.8781 26.1213C53.4407 26.6839 54.2037 27 54.9994 27Z" fill="#FACC15"/>
</svg>
