<svg width="512" height="512" viewBox="0 0 512 512" fill="none" xmlns="http://www.w3.org/2000/svg">
<path d="M313.831 254.338C313.83 284.742 289.183 309.388 258.78 309.388H139.81L105.935 315.994C101.478 316.864 97.7525 312.582 99.2279 308.288L117.22 255.93V167.83C117.22 137.426 141.867 112.779 172.271 112.779H258.78C289.183 112.779 313.831 137.426 313.831 167.83V254.338Z" fill="url(#paint0_linear_5604_20345)" fill-opacity="0.6"/>
<path d="M335.989 68C366.392 68.0002 391.04 92.6472 391.04 123.051V242.025L397.645 275.896C398.514 280.352 394.233 284.078 389.939 282.603L337.578 264.609H249.48C219.076 264.609 194.429 239.962 194.429 209.559V123.051C194.429 92.6472 219.076 68.0001 249.48 68H335.989Z" fill="url(#paint1_linear_5604_20345)"/>
<path d="M265.117 167.528C265.117 176.331 257.981 183.467 249.178 183.467C240.375 183.467 233.239 176.331 233.239 167.528C233.239 158.725 240.375 151.589 249.178 151.589C257.981 151.589 265.117 158.725 265.117 167.528Z" fill="#9CBCFF"/>
<path d="M313.996 167.528C313.996 176.331 306.86 183.467 298.057 183.467C289.254 183.467 282.118 176.331 282.118 167.528C282.118 158.725 289.254 151.589 298.057 151.589C306.86 151.589 313.996 158.725 313.996 167.528Z" fill="#D5E3FF"/>
<path d="M358.624 167.528C358.624 176.331 351.488 183.467 342.685 183.467C333.882 183.467 326.746 176.331 326.746 167.528C326.746 158.725 333.882 151.589 342.685 151.589C351.488 151.589 358.624 158.725 358.624 167.528Z" fill="#F4F8FF"/>
<path d="M87.4739 415.239V385.103C87.4739 382.889 87.0914 380.976 86.3264 379.366C85.5614 377.756 84.3939 376.507 82.8237 375.622C81.2535 374.736 79.2605 374.293 76.8448 374.293C74.711 374.293 72.8388 374.655 71.2284 375.38C69.6582 376.105 68.4503 377.131 67.6049 378.46C66.7594 379.748 66.3366 381.238 66.3366 382.929H50.3327C50.3327 380.232 50.9769 377.675 52.2653 375.259C53.5536 372.803 55.3855 370.629 57.7609 368.737C60.1766 366.804 63.0553 365.295 66.397 364.208C69.779 363.12 73.5635 362.577 77.7507 362.577C82.7029 362.577 87.1115 363.422 90.9766 365.113C94.882 366.764 97.9418 369.26 100.156 372.602C102.411 375.944 103.538 380.151 103.538 385.224V413.729C103.538 416.99 103.739 419.788 104.142 422.124C104.585 424.418 105.229 426.411 106.075 428.102V429.129H89.8292C89.0642 427.478 88.4804 425.385 88.0778 422.848C87.6752 420.272 87.4739 417.735 87.4739 415.239ZM89.7084 389.331L89.8292 398.812H79.7437C77.2475 398.812 75.0532 399.074 73.1609 399.597C71.2686 400.08 69.7186 400.805 68.5107 401.771C67.3029 402.697 66.397 403.825 65.7931 405.153C65.1892 406.442 64.8872 407.911 64.8872 409.562C64.8872 411.172 65.2496 412.622 65.9743 413.91C66.7392 415.199 67.8263 416.225 69.2354 416.99C70.6849 417.715 72.3758 418.077 74.3084 418.077C77.1267 418.077 79.5826 417.514 81.6762 416.386C83.7698 415.219 85.4004 413.81 86.568 412.159C87.7356 410.508 88.3596 408.938 88.4401 407.448L93.0299 414.333C92.4663 415.984 91.6208 417.735 90.4935 419.587C89.3661 421.439 87.9167 423.17 86.1452 424.781C84.3737 426.391 82.2399 427.72 79.7437 428.767C77.2475 429.814 74.3486 430.337 71.0472 430.337C66.8198 430.337 63.0352 429.491 59.6935 427.8C56.3518 426.109 53.7147 423.794 51.7821 420.855C49.8496 417.916 48.8833 414.575 48.8833 410.83C48.8833 407.368 49.5275 404.308 50.8158 401.651C52.1042 398.993 54.0166 396.759 56.5531 394.947C59.0896 393.095 62.23 391.706 65.9743 390.78C69.7588 389.814 74.0869 389.331 78.9586 389.331H89.7084Z" fill="#3D71DE"/>
<path d="M127.671 336.306V429.129H111.727V336.306H127.671ZM168.617 363.785L140.172 395.732L124.772 411.374L119.699 398.993L131.596 384.016L149.352 363.785H168.617ZM152.311 429.129L132.079 398.691L142.708 388.364L170.791 429.129H152.311Z" fill="#3D71DE"/>
<path d="M206.881 415.239V385.103C206.881 382.889 206.499 380.976 205.734 379.366C204.969 377.756 203.801 376.507 202.231 375.622C200.661 374.736 198.668 374.293 196.252 374.293C194.118 374.293 192.246 374.655 190.636 375.38C189.065 376.105 187.858 377.131 187.012 378.46C186.167 379.748 185.744 381.238 185.744 382.929H169.74C169.74 380.232 170.384 377.675 171.673 375.259C172.961 372.803 174.793 370.629 177.168 368.737C179.584 366.804 182.463 365.295 185.804 364.208C189.186 363.12 192.971 362.577 197.158 362.577C202.11 362.577 206.519 363.422 210.384 365.113C214.289 366.764 217.349 369.26 219.563 372.602C221.818 375.944 222.945 380.151 222.945 385.224V413.729C222.945 416.99 223.147 419.788 223.549 422.124C223.992 424.418 224.636 426.411 225.482 428.102V429.129H209.236C208.471 427.478 207.888 425.385 207.485 422.848C207.082 420.272 206.881 417.735 206.881 415.239ZM209.116 389.331L209.236 398.812H199.151C196.655 398.812 194.461 399.074 192.568 399.597C190.676 400.08 189.126 400.805 187.918 401.771C186.71 402.697 185.804 403.825 185.2 405.153C184.596 406.442 184.294 407.911 184.294 409.562C184.294 411.172 184.657 412.622 185.382 413.91C186.147 415.199 187.234 416.225 188.643 416.99C190.092 417.715 191.783 418.077 193.716 418.077C196.534 418.077 198.99 417.514 201.083 416.386C203.177 415.219 204.808 413.81 205.975 412.159C207.143 410.508 207.767 408.938 207.847 407.448L212.437 414.333C211.874 415.984 211.028 417.735 209.901 419.587C208.773 421.439 207.324 423.17 205.553 424.781C203.781 426.391 201.647 427.72 199.151 428.767C196.655 429.814 193.756 430.337 190.454 430.337C186.227 430.337 182.442 429.491 179.101 427.8C175.759 426.109 173.122 423.794 171.189 420.855C169.257 417.916 168.291 414.575 168.291 410.83C168.291 407.368 168.935 404.308 170.223 401.651C171.512 398.993 173.424 396.759 175.96 394.947C178.497 393.095 181.637 391.706 185.382 390.78C189.166 389.814 193.494 389.331 198.366 389.331H209.116Z" fill="#3D71DE"/>
<path d="M257.949 417.775C260.203 417.775 262.216 417.332 263.988 416.447C265.759 415.561 267.169 414.313 268.215 412.702C269.302 411.092 269.886 409.22 269.967 407.086H285.004C284.924 411.515 283.676 415.48 281.26 418.983C278.844 422.486 275.623 425.264 271.597 427.317C267.611 429.33 263.142 430.337 258.19 430.337C253.158 430.337 248.769 429.491 245.025 427.8C241.28 426.109 238.16 423.754 235.664 420.735C233.208 417.715 231.356 414.212 230.108 410.226C228.9 406.24 228.296 401.973 228.296 397.423V395.491C228.296 390.941 228.9 386.673 230.108 382.688C231.356 378.702 233.208 375.199 235.664 372.179C238.16 369.16 241.28 366.804 245.025 365.113C248.769 363.422 253.137 362.577 258.13 362.577C263.404 362.577 268.034 363.604 272.02 365.657C276.046 367.71 279.187 370.609 281.441 374.353C283.736 378.098 284.924 382.506 285.004 387.579H269.967C269.886 385.244 269.363 383.151 268.397 381.299C267.43 379.446 266.061 377.957 264.29 376.83C262.518 375.702 260.364 375.139 257.828 375.139C255.13 375.139 252.876 375.702 251.064 376.83C249.293 377.957 247.903 379.507 246.897 381.48C245.931 383.412 245.246 385.586 244.844 388.002C244.481 390.377 244.3 392.874 244.3 395.491V397.423C244.3 400.08 244.481 402.617 244.844 405.033C245.246 407.448 245.931 409.622 246.897 411.555C247.903 413.447 249.293 414.957 251.064 416.084C252.876 417.212 255.171 417.775 257.949 417.775Z" fill="#3D71DE"/>
<path d="M305.091 336.367V429.129H289.087V336.367H305.091ZM302.554 394.102H297.844C297.844 389.552 298.448 385.365 299.656 381.54C300.863 377.715 302.574 374.394 304.789 371.575C307.003 368.717 309.64 366.502 312.7 364.932C315.8 363.362 319.223 362.577 322.967 362.577C326.188 362.577 329.107 363.04 331.724 363.966C334.381 364.852 336.656 366.281 338.548 368.254C340.44 370.227 341.89 372.803 342.896 375.984C343.943 379.124 344.466 382.949 344.466 387.459V429.129H328.402V387.338C328.402 384.318 327.959 381.943 327.074 380.211C326.188 378.44 324.92 377.172 323.269 376.407C321.658 375.642 319.665 375.259 317.29 375.259C314.713 375.259 312.499 375.763 310.647 376.769C308.795 377.735 307.265 379.084 306.057 380.815C304.889 382.547 304.004 384.54 303.4 386.794C302.836 389.049 302.554 391.485 302.554 394.102Z" fill="#3D71DE"/>
<path d="M388.347 415.239V385.103C388.347 382.889 387.965 380.976 387.2 379.366C386.435 377.756 385.267 376.507 383.697 375.622C382.127 374.736 380.134 374.293 377.718 374.293C375.584 374.293 373.712 374.655 372.102 375.38C370.532 376.105 369.324 377.131 368.478 378.46C367.633 379.748 367.21 381.238 367.21 382.929H351.206C351.206 380.232 351.85 377.675 353.139 375.259C354.427 372.803 356.259 370.629 358.634 368.737C361.05 366.804 363.929 365.295 367.27 364.208C370.652 363.12 374.437 362.577 378.624 362.577C383.576 362.577 387.985 363.422 391.85 365.113C395.755 366.764 398.815 369.26 401.03 372.602C403.284 375.944 404.412 380.151 404.412 385.224V413.729C404.412 416.99 404.613 419.788 405.016 422.124C405.458 424.418 406.103 426.411 406.948 428.102V429.129H390.703C389.938 427.478 389.354 425.385 388.951 422.848C388.549 420.272 388.347 417.735 388.347 415.239ZM390.582 389.331L390.703 398.812H380.617C378.121 398.812 375.927 399.074 374.034 399.597C372.142 400.08 370.592 400.805 369.384 401.771C368.176 402.697 367.27 403.825 366.667 405.153C366.063 406.442 365.761 407.911 365.761 409.562C365.761 411.172 366.123 412.622 366.848 413.91C367.613 415.199 368.7 416.225 370.109 416.99C371.558 417.715 373.249 418.077 375.182 418.077C378 418.077 380.456 417.514 382.55 416.386C384.643 415.219 386.274 413.81 387.441 412.159C388.609 410.508 389.233 408.938 389.314 407.448L393.903 414.333C393.34 415.984 392.494 417.735 391.367 419.587C390.24 421.439 388.79 423.17 387.019 424.781C385.247 426.391 383.113 427.72 380.617 428.767C378.121 429.814 375.222 430.337 371.921 430.337C367.693 430.337 363.909 429.491 360.567 427.8C357.225 426.109 354.588 423.794 352.656 420.855C350.723 417.916 349.757 414.575 349.757 410.83C349.757 407.368 350.401 404.308 351.689 401.651C352.978 398.993 354.89 396.759 357.427 394.947C359.963 393.095 363.103 391.706 366.848 390.78C370.632 389.814 374.96 389.331 379.832 389.331H390.582Z" fill="#3D71DE"/>
<path d="M443.522 363.785V375.259H406.078V363.785H443.522ZM416.104 347.721H432.107V410.287C432.107 412.219 432.369 413.709 432.893 414.756C433.416 415.803 434.201 416.507 435.248 416.869C436.295 417.232 437.543 417.413 438.992 417.413C440.039 417.413 441.005 417.353 441.891 417.232C442.777 417.111 443.522 416.99 444.126 416.869L444.186 428.827C442.857 429.27 441.347 429.632 439.656 429.914C438.006 430.196 436.134 430.337 434.04 430.337C430.457 430.337 427.316 429.733 424.619 428.525C421.921 427.277 419.828 425.284 418.338 422.546C416.848 419.768 416.104 416.104 416.104 411.555V347.721Z" fill="#3D71DE"/>
<defs>
<linearGradient id="paint0_linear_5604_20345" x1="191.432" y1="184.259" x2="195.911" y2="352.933" gradientUnits="userSpaceOnUse">
<stop stop-color="#3D71DE"/>
<stop offset="1" stop-color="#34B8C7" stop-opacity="0.9"/>
</linearGradient>
<linearGradient id="paint1_linear_5604_20345" x1="265.909" y1="190.398" x2="434.583" y2="185.92" gradientUnits="userSpaceOnUse">
<stop stop-color="#3D71DE"/>
<stop offset="1" stop-color="#34B8C7" stop-opacity="0.9"/>
</linearGradient>
</defs>
</svg>
