<svg width="64" height="64" viewBox="0 0 64 64" fill="none" xmlns="http://www.w3.org/2000/svg">
<path opacity="0.2" d="M20 36V46C20 47.0609 19.5786 48.0783 18.8284 48.8284C18.0783 49.5786 17.0609 50 16 50H12C10.9391 50 9.92172 49.5786 9.17157 48.8284C8.42143 48.0783 8 47.0609 8 46V32H16C17.0609 32 18.0783 32.4214 18.8284 33.1716C19.5786 33.9217 20 34.9391 20 36ZM48 32C46.9391 32 45.9217 32.4214 45.1716 33.1716C44.4214 33.9217 44 34.9391 44 36V46C44 47.0609 44.4214 48.0783 45.1716 48.8284C45.9217 49.5786 46.9391 50 48 50H56V32H48Z" fill="#62D36D"/>
<path d="M50.4725 13.6651C46.8402 10.0115 42.2051 7.5185 37.1546 6.50188C32.104 5.48526 26.8653 5.99081 22.1023 7.95447C17.3394 9.91812 13.2666 13.2515 10.4 17.5322C7.53335 21.8129 6.00202 26.8482 6 32.0001V46.0001C6 47.5914 6.63214 49.1175 7.75736 50.2427C8.88258 51.3679 10.4087 52.0001 12 52.0001H16C17.5913 52.0001 19.1174 51.3679 20.2426 50.2427C21.3679 49.1175 22 47.5914 22 46.0001V36.0001C22 34.4088 21.3679 32.8826 20.2426 31.7574C19.1174 30.6322 17.5913 30.0001 16 30.0001H10.09C10.4757 25.8299 12.0421 21.8561 14.6056 18.5443C17.169 15.2326 20.6234 12.7201 24.5637 11.3015C28.5041 9.88281 32.7672 9.6167 36.8534 10.5343C40.9396 11.452 44.6796 13.5153 47.635 16.4826C51.2472 20.1133 53.4691 24.8977 53.9125 30.0001H48C46.4087 30.0001 44.8826 30.6322 43.7574 31.7574C42.6321 32.8826 42 34.4088 42 36.0001V46.0001C42 47.5914 42.6321 49.1175 43.7574 50.2427C44.8826 51.3679 46.4087 52.0001 48 52.0001H54C54 53.5914 53.3679 55.1175 52.2426 56.2427C51.1174 57.3679 49.5913 58.0001 48 58.0001H34C33.4696 58.0001 32.9609 58.2108 32.5858 58.5859C32.2107 58.9609 32 59.4696 32 60.0001C32 60.5305 32.2107 61.0392 32.5858 61.4143C32.9609 61.7894 33.4696 62.0001 34 62.0001H48C50.6522 62.0001 53.1957 60.9465 55.0711 59.0711C56.9464 57.1958 58 54.6522 58 52.0001V32.0001C58.013 28.599 57.3548 25.2288 56.0631 22.0825C54.7714 18.9363 52.8716 16.0758 50.4725 13.6651ZM16 34.0001C16.5304 34.0001 17.0391 34.2108 17.4142 34.5859C17.7893 34.9609 18 35.4696 18 36.0001V46.0001C18 46.5305 17.7893 47.0392 17.4142 47.4143C17.0391 47.7894 16.5304 48.0001 16 48.0001H12C11.4696 48.0001 10.9609 47.7894 10.5858 47.4143C10.2107 47.0392 10 46.5305 10 46.0001V34.0001H16ZM48 48.0001C47.4696 48.0001 46.9609 47.7894 46.5858 47.4143C46.2107 47.0392 46 46.5305 46 46.0001V36.0001C46 35.4696 46.2107 34.9609 46.5858 34.5859C46.9609 34.2108 47.4696 34.0001 48 34.0001H54V48.0001H48Z" fill="#62D36D"/>
</svg>
