<svg width="64" height="64" viewBox="0 0 64 64" fill="none" xmlns="http://www.w3.org/2000/svg">
<path opacity="0.2" d="M54 14V30H40V14H54ZM10 52C10 52.5304 10.2107 53.0391 10.5858 53.4142C10.9609 53.7893 11.4696 54 12 54H22C22.5304 54 23.0391 53.7893 23.4142 53.4142C23.7893 53.0391 24 52.5304 24 52V30H10V52Z" fill="#00BCD3"/>
<path d="M54 12H10C9.46957 12 8.96086 12.2107 8.58579 12.5858C8.21071 12.9609 8 13.4696 8 14V52C8 53.0609 8.42143 54.0783 9.17157 54.8284C9.92172 55.5786 10.9391 56 12 56H22C23.0609 56 24.0783 55.5786 24.8284 54.8284C25.5786 54.0783 26 53.0609 26 52V40H38V44C38 45.0609 38.4214 46.0783 39.1716 46.8284C39.9217 47.5786 40.9391 48 42 48H52C53.0609 48 54.0783 47.5786 54.8284 46.8284C55.5786 46.0783 56 45.0609 56 44V14C56 13.4696 55.7893 12.9609 55.4142 12.5858C55.0391 12.2107 54.5304 12 54 12ZM52 28H42V16H52V28ZM22 16V28H12V16H22ZM22 52H12V32H22V52ZM26 36V16H38V36H26ZM42 44V32H52V44H42Z" fill="#00BCD3"/>
</svg>
