<svg width="104" height="26" viewBox="0 0 104 26" fill="none" xmlns="http://www.w3.org/2000/svg">
<path d="M20.0312 18.8044C20.0312 21.6379 17.7339 23.9353 14.9004 23.9353H3.8125L0.65625 24.5505C0.241234 24.6312 -0.105858 24.2327 0.03125 23.8328L1.70801 18.9539V10.7429C1.70801 7.90945 4.00539 5.61206 6.83887 5.61206H14.9004C17.7339 5.61206 20.0312 7.90945 20.0312 10.7429V18.8044Z" fill="url(#paint0_linear_5588_31152)" fill-opacity="0.6"/>
<path d="M22.0957 1.43896C24.929 1.43922 27.2256 3.73651 27.2256 6.56982V17.6538L27.8418 20.814C27.9226 21.2291 27.524 21.5762 27.124 21.439L22.2451 19.7622H14.0332C11.1997 19.7622 8.90234 17.4648 8.90234 14.6313V6.56982C8.90234 3.73635 11.1997 1.43896 14.0332 1.43896H22.0957Z" fill="url(#paint1_linear_5588_31152)"/>
<circle cx="14.003" cy="10.7144" r="1.48541" fill="#9CBCFF"/>
<circle cx="18.5596" cy="10.7144" r="1.48541" fill="#D5E3FF"/>
<circle cx="22.7178" cy="10.7144" r="1.48541" fill="#F4F8FF"/>
<path d="M37.5464 18.4791V13.0097C37.5464 12.6078 37.4769 12.2607 37.3381 11.9685C37.1993 11.6762 36.9874 11.4497 36.7024 11.2889C36.4174 11.1281 36.0557 11.0478 35.6173 11.0478C35.23 11.0478 34.8902 11.1135 34.598 11.2451C34.313 11.3766 34.0938 11.5629 33.9403 11.8041C33.7869 12.0379 33.7102 12.3082 33.7102 12.6151H30.8056C30.8056 12.1256 30.9225 11.6616 31.1563 11.2231C31.3902 10.7774 31.7226 10.3828 32.1537 10.0394C32.5922 9.68866 33.1146 9.41464 33.7211 9.21735C34.3349 9.02006 35.0218 8.92141 35.7817 8.92141C36.6805 8.92141 37.4806 9.07486 38.1821 9.38176C38.8909 9.68135 39.4462 10.1344 39.8481 10.7409C40.2573 11.3474 40.4619 12.1109 40.4619 13.0316V18.205C40.4619 18.7969 40.4984 19.3048 40.5715 19.7286C40.6519 20.1451 40.7688 20.5068 40.9222 20.8137V21H37.9738C37.835 20.7004 37.729 20.3204 37.656 19.8601C37.5829 19.3924 37.5464 18.9321 37.5464 18.4791ZM37.9519 13.777L37.9738 15.4978H36.1434C35.6904 15.4978 35.2921 15.5453 34.9487 15.6403C34.6053 15.7279 34.3239 15.8595 34.1047 16.0348C33.8855 16.2029 33.7211 16.4075 33.6115 16.6486C33.5019 16.8825 33.4471 17.1492 33.4471 17.4488C33.4471 17.741 33.5129 18.0041 33.6444 18.2379C33.7832 18.4718 33.9805 18.6581 34.2363 18.7969C34.4993 18.9284 34.8062 18.9942 35.157 18.9942C35.6684 18.9942 36.1142 18.8919 36.4941 18.6873C36.8741 18.4754 37.1701 18.2197 37.382 17.9201C37.5939 17.6205 37.7071 17.3355 37.7217 17.0651L38.5547 18.3147C38.4524 18.6142 38.299 18.9321 38.0944 19.2682C37.8898 19.6043 37.6267 19.9186 37.3052 20.2108C36.9837 20.5031 36.5964 20.7443 36.1434 20.9342C35.6904 21.1242 35.1643 21.2192 34.5651 21.2192C33.7978 21.2192 33.111 21.0658 32.5045 20.7589C31.898 20.452 31.4194 20.0318 31.0686 19.4984C30.7179 18.965 30.5425 18.3585 30.5425 17.6789C30.5425 17.0505 30.6595 16.4952 30.8933 16.0129C31.1271 15.5307 31.4742 15.1251 31.9345 14.7963C32.3949 14.4602 32.9648 14.2081 33.6444 14.04C34.3313 13.8646 35.1168 13.777 36.0009 13.777H37.9519ZM44.8417 4.15355V21H41.9481V4.15355H44.8417ZM52.273 9.14063L47.1106 14.9388L44.3156 17.7776L43.3949 15.5307L45.5542 12.8124L48.7766 9.14063H52.273ZM49.3137 21L45.6419 15.4759L47.5709 13.6016L52.6676 21H49.3137ZM59.2177 18.4791V13.0097C59.2177 12.6078 59.1483 12.2607 59.0094 11.9685C58.8706 11.6762 58.6587 11.4497 58.3737 11.2889C58.0887 11.1281 57.727 11.0478 57.2886 11.0478C56.9013 11.0478 56.5616 11.1135 56.2693 11.2451C55.9843 11.3766 55.7651 11.5629 55.6116 11.8041C55.4582 12.0379 55.3815 12.3082 55.3815 12.6151H52.4769C52.4769 12.1256 52.5938 11.6616 52.8276 11.2231C53.0615 10.7774 53.3939 10.3828 53.8251 10.0394C54.2635 9.68866 54.7859 9.41464 55.3924 9.21735C56.0062 9.02006 56.6931 8.92141 57.453 8.92141C58.3518 8.92141 59.1519 9.07486 59.8534 9.38176C60.5622 9.68135 61.1175 10.1344 61.5194 10.7409C61.9286 11.3474 62.1332 12.1109 62.1332 13.0316V18.205C62.1332 18.7969 62.1697 19.3048 62.2428 19.7286C62.3232 20.1451 62.4401 20.5068 62.5935 20.8137V21H59.6451C59.5063 20.7004 59.4004 20.3204 59.3273 19.8601C59.2542 19.3924 59.2177 18.9321 59.2177 18.4791ZM59.6232 13.777L59.6451 15.4978H57.8147C57.3617 15.4978 56.9634 15.5453 56.62 15.6403C56.2766 15.7279 55.9953 15.8595 55.776 16.0348C55.5568 16.2029 55.3924 16.4075 55.2828 16.6486C55.1732 16.8825 55.1184 17.1492 55.1184 17.4488C55.1184 17.741 55.1842 18.0041 55.3157 18.2379C55.4545 18.4718 55.6518 18.6581 55.9076 18.7969C56.1706 18.9284 56.4775 18.9942 56.8283 18.9942C57.3398 18.9942 57.7855 18.8919 58.1655 18.6873C58.5454 18.4754 58.8414 18.2197 59.0533 17.9201C59.2652 17.6205 59.3784 17.3355 59.393 17.0651L60.2261 18.3147C60.1238 18.6142 59.9703 18.9321 59.7657 19.2682C59.5611 19.6043 59.2981 19.9186 58.9765 20.2108C58.655 20.5031 58.2678 20.7443 57.8147 20.9342C57.3617 21.1242 56.8356 21.2192 56.2364 21.2192C55.4691 21.2192 54.7823 21.0658 54.1758 20.7589C53.5693 20.452 53.0907 20.0318 52.74 19.4984C52.3892 18.965 52.2138 18.3585 52.2138 17.6789C52.2138 17.0505 52.3308 16.4952 52.5646 16.0129C52.7984 15.5307 53.1455 15.1251 53.6058 14.7963C54.0662 14.4602 54.6361 14.2081 55.3157 14.04C56.0026 13.8646 56.7881 13.777 57.6722 13.777H59.6232ZM68.486 18.9394C68.8952 18.9394 69.2605 18.859 69.582 18.6983C69.9035 18.5375 70.1593 18.311 70.3493 18.0187C70.5466 17.7264 70.6525 17.3867 70.6671 16.9994H73.3963C73.3817 17.8032 73.1552 18.5229 72.7168 19.1586C72.2783 19.7943 71.6938 20.2985 70.9631 20.6712C70.2397 21.0365 69.4286 21.2192 68.5298 21.2192C67.6164 21.2192 66.8199 21.0658 66.1404 20.7589C65.4608 20.452 64.8945 20.0245 64.4415 19.4765C63.9958 18.9284 63.6596 18.2927 63.4331 17.5693C63.2139 16.8459 63.1043 16.0714 63.1043 15.2457V14.8949C63.1043 14.0692 63.2139 13.2947 63.4331 12.5713C63.6596 11.8479 63.9958 11.2122 64.4415 10.6641C64.8945 10.1161 65.4608 9.68866 66.1404 9.38176C66.8199 9.07486 67.6128 8.92141 68.5188 8.92141C69.4761 8.92141 70.3164 9.10774 71.0398 9.4804C71.7705 9.85306 72.3404 10.3792 72.7496 11.0587C73.1661 11.7383 73.3817 12.5384 73.3963 13.4591H70.6671C70.6525 13.0353 70.5575 12.6553 70.3821 12.3192C70.2068 11.9831 69.9583 11.7127 69.6368 11.5081C69.3153 11.3035 68.9244 11.2012 68.464 11.2012C67.9745 11.2012 67.5653 11.3035 67.2365 11.5081C66.9149 11.7127 66.6628 11.994 66.4802 12.3521C66.3048 12.7028 66.1806 13.0974 66.1075 13.5358C66.0417 13.9669 66.0089 14.42 66.0089 14.8949V15.2457C66.0089 15.7279 66.0417 16.1883 66.1075 16.6267C66.1806 17.0651 66.3048 17.4597 66.4802 17.8105C66.6628 18.1539 66.9149 18.4279 67.2365 18.6325C67.5653 18.8371 67.9818 18.9394 68.486 18.9394ZM77.0418 4.16451V21H74.1372V4.16451H77.0418ZM76.5815 14.6428H75.7265C75.7265 13.8172 75.8361 13.0572 76.0554 12.363C76.2746 11.6689 76.5851 11.066 76.987 10.5545C77.3889 10.0357 77.8675 9.63385 78.4228 9.34888C78.9855 9.0639 79.6066 8.92141 80.2861 8.92141C80.8707 8.92141 81.4005 9.00544 81.8754 9.17351C82.3577 9.33426 82.7706 9.59366 83.114 9.95171C83.4574 10.3098 83.7205 10.7774 83.9031 11.3547C84.0931 11.9246 84.1881 12.6188 84.1881 13.4372V21H81.2726V13.4153C81.2726 12.8672 81.1922 12.4361 81.0315 12.1219C80.8707 11.8004 80.6405 11.5702 80.341 11.4314C80.0487 11.2926 79.687 11.2231 79.2559 11.2231C78.7882 11.2231 78.3863 11.3145 78.0502 11.4972C77.7141 11.6725 77.4364 11.9173 77.2172 12.2315C77.0053 12.5457 76.8445 12.9074 76.7349 13.3166C76.6326 13.7258 76.5815 14.1679 76.5815 14.6428ZM92.1521 18.4791V13.0097C92.1521 12.6078 92.0827 12.2607 91.9439 11.9685C91.805 11.6762 91.5931 11.4497 91.3081 11.2889C91.0232 11.1281 90.6615 11.0478 90.223 11.0478C89.8358 11.0478 89.496 11.1135 89.2037 11.2451C88.9187 11.3766 88.6995 11.5629 88.5461 11.8041C88.3926 12.0379 88.3159 12.3082 88.3159 12.6151H85.4113C85.4113 12.1256 85.5282 11.6616 85.7621 11.2231C85.9959 10.7774 86.3284 10.3828 86.7595 10.0394C87.1979 9.68866 87.7204 9.41464 88.3269 9.21735C88.9406 9.02006 89.6275 8.92141 90.3874 8.92141C91.2862 8.92141 92.0863 9.07486 92.7878 9.38176C93.4966 9.68135 94.0519 10.1344 94.4538 10.7409C94.863 11.3474 95.0676 12.1109 95.0676 13.0316V18.205C95.0676 18.7969 95.1042 19.3048 95.1772 19.7286C95.2576 20.1451 95.3745 20.5068 95.528 20.8137V21H92.5796C92.4407 20.7004 92.3348 20.3204 92.2617 19.8601C92.1886 19.3924 92.1521 18.9321 92.1521 18.4791ZM92.5576 13.777L92.5796 15.4978H90.7491C90.2961 15.4978 89.8979 15.5453 89.5544 15.6403C89.211 15.7279 88.9297 15.8595 88.7105 16.0348C88.4913 16.2029 88.3269 16.4075 88.2172 16.6486C88.1076 16.8825 88.0528 17.1492 88.0528 17.4488C88.0528 17.741 88.1186 18.0041 88.2501 18.2379C88.389 18.4718 88.5863 18.6581 88.842 18.7969C89.1051 18.9284 89.412 18.9942 89.7627 18.9942C90.2742 18.9942 90.7199 18.8919 91.0999 18.6873C91.4799 18.4754 91.7758 18.2197 91.9877 17.9201C92.1996 17.6205 92.3129 17.3355 92.3275 17.0651L93.1605 18.3147C93.0582 18.6142 92.9047 18.9321 92.7001 19.2682C92.4955 19.6043 92.2325 19.9186 91.911 20.2108C91.5895 20.5031 91.2022 20.7443 90.7491 20.9342C90.2961 21.1242 89.77 21.2192 89.1708 21.2192C88.4036 21.2192 87.7167 21.0658 87.1102 20.7589C86.5037 20.452 86.0251 20.0318 85.6744 19.4984C85.3236 18.965 85.1483 18.3585 85.1483 17.6789C85.1483 17.0505 85.2652 16.4952 85.499 16.0129C85.7328 15.5307 86.0799 15.1251 86.5403 14.7963C87.0006 14.4602 87.5706 14.2081 88.2501 14.04C88.937 13.8646 89.7225 13.777 90.6067 13.777H92.5576ZM102.166 9.14063V11.2231H95.3701V9.14063H102.166ZM97.1896 6.2251H100.094V17.5803C100.094 17.931 100.142 18.2014 100.237 18.3914C100.332 18.5814 100.474 18.7092 100.664 18.775C100.854 18.8408 101.081 18.8736 101.344 18.8736C101.534 18.8736 101.709 18.8627 101.87 18.8408C102.031 18.8188 102.166 18.7969 102.275 18.775L102.286 20.9452C102.045 21.0256 101.771 21.0913 101.464 21.1425C101.165 21.1936 100.825 21.2192 100.445 21.2192C99.7946 21.2192 99.2246 21.1096 98.735 20.8904C98.2455 20.6639 97.8655 20.3022 97.5951 19.8053C97.3248 19.3011 97.1896 18.6362 97.1896 17.8105V6.2251Z" fill="#3D71DE"/>
<defs>
<linearGradient id="paint0_linear_5588_31152" x1="8.62434" y1="12.2735" x2="9.04167" y2="27.9929" gradientUnits="userSpaceOnUse">
<stop stop-color="#3D71DE"/>
<stop offset="1" stop-color="#34B8C7" stop-opacity="0.9"/>
</linearGradient>
<linearGradient id="paint1_linear_5588_31152" x1="15.5642" y1="12.8459" x2="31.2843" y2="12.4285" gradientUnits="userSpaceOnUse">
<stop stop-color="#3D71DE"/>
<stop offset="1" stop-color="#34B8C7" stop-opacity="0.9"/>
</linearGradient>
</defs>
</svg>
