<svg width="110" height="110" viewBox="0 0 110 110" fill="none" xmlns="http://www.w3.org/2000/svg">
<rect y="46" width="73" height="64" rx="18" fill="#F6FFF7"/>
<path opacity="0.2" d="M95.1562 20.7812V44.5312H74.375V20.7812H95.1562ZM29.8438 77.1875C29.8438 77.9749 30.1565 78.73 30.7133 79.2867C31.27 79.8435 32.0251 80.1562 32.8125 80.1562H47.6562C48.4436 80.1562 49.1987 79.8435 49.7555 79.2867C50.3122 78.73 50.625 77.9749 50.625 77.1875V44.5312H29.8438V77.1875Z" fill="#62D36D"/>
<path d="M95.1562 17.8125H29.8438C29.0564 17.8125 28.3013 18.1253 27.7445 18.682C27.1878 19.2388 26.875 19.9939 26.875 20.7812V77.1875C26.875 78.7622 27.5006 80.2724 28.6141 81.3859C29.7276 82.4994 31.2378 83.125 32.8125 83.125H47.6562C49.231 83.125 50.7412 82.4994 51.8547 81.3859C52.9682 80.2724 53.5938 78.7622 53.5938 77.1875V59.375H71.4062V65.3125C71.4062 66.8872 72.0318 68.3974 73.1453 69.5109C74.2588 70.6244 75.769 71.25 77.3438 71.25H92.1875C93.7622 71.25 95.2724 70.6244 96.3859 69.5109C97.4994 68.3974 98.125 66.8872 98.125 65.3125V20.7812C98.125 19.9939 97.8122 19.2388 97.2555 18.682C96.6987 18.1253 95.9436 17.8125 95.1562 17.8125ZM92.1875 41.5625H77.3438V23.75H92.1875V41.5625ZM47.6562 23.75V41.5625H32.8125V23.75H47.6562ZM47.6562 77.1875H32.8125V47.5H47.6562V77.1875ZM53.5938 53.4375V23.75H71.4062V53.4375H53.5938ZM77.3438 65.3125V47.5H92.1875V65.3125H77.3438Z" fill="#62D36D"/>
</svg>
