<svg width="110" height="110" viewBox="0 0 110 110" fill="none" xmlns="http://www.w3.org/2000/svg">
<rect y="47" width="73" height="63" rx="18" fill="#FFF3F3"/>
<path opacity="0.2" d="M98.125 23.75V77.1875H26.875V17.8125H92.1875C93.7622 17.8125 95.2724 18.4381 96.3859 19.5516C97.4994 20.6651 98.125 22.1753 98.125 23.75Z" fill="#F75555"/>
<path d="M101.094 77.1875C101.094 77.9749 100.781 78.73 100.224 79.2867C99.6675 79.8435 98.9124 80.1562 98.125 80.1562H26.875C26.0876 80.1562 25.3325 79.8435 24.7758 79.2867C24.219 78.73 23.9062 77.9749 23.9062 77.1875V17.8125C23.9062 17.0251 24.219 16.27 24.7758 15.7133C25.3325 15.1565 26.0876 14.8438 26.875 14.8438C27.6624 14.8438 28.4175 15.1565 28.9742 15.7133C29.531 16.27 29.8438 17.0251 29.8438 17.8125V58.1467L48.5246 39.4621C48.8003 39.1861 49.1277 38.9671 49.4881 38.8177C49.8485 38.6683 50.2349 38.5914 50.625 38.5914C51.0151 38.5914 51.4015 38.6683 51.7619 38.8177C52.1223 38.9671 52.4497 39.1861 52.7254 39.4621L62.5 49.2404L82.0529 29.6875H74.375C73.5876 29.6875 72.8325 29.3747 72.2758 28.818C71.719 28.2612 71.4062 27.5061 71.4062 26.7188C71.4062 25.9314 71.719 25.1763 72.2758 24.6195C72.8325 24.0628 73.5876 23.75 74.375 23.75H89.2188C90.0061 23.75 90.7612 24.0628 91.318 24.6195C91.8747 25.1763 92.1875 25.9314 92.1875 26.7188V41.5625C92.1875 42.3499 91.8747 43.105 91.318 43.6617C90.7612 44.2185 90.0061 44.5312 89.2188 44.5312C88.4314 44.5312 87.6763 44.2185 87.1195 43.6617C86.5628 43.105 86.25 42.3499 86.25 41.5625V33.8846L64.6004 55.5379C64.3247 55.8139 63.9973 56.0329 63.6369 56.1823C63.2765 56.3317 62.8901 56.4086 62.5 56.4086C62.1099 56.4086 61.7235 56.3317 61.3631 56.1823C61.0027 56.0329 60.6753 55.8139 60.3996 55.5379L50.625 45.7596L29.8438 66.5408V74.2188H98.125C98.9124 74.2188 99.6675 74.5315 100.224 75.0883C100.781 75.645 101.094 76.4001 101.094 77.1875Z" fill="#F75555"/>
</svg>
