<svg width="62" height="62" viewBox="0 0 62 62" fill="none" xmlns="http://www.w3.org/2000/svg">
<path opacity="0.2" d="M56.1875 31C56.1875 34.0298 51.8717 36.316 50.6947 39.1593C49.5613 41.9009 51.0386 46.5823 48.8105 48.8105C46.5823 51.0386 41.9009 49.5613 39.1593 50.6947C36.3281 51.8717 34.0273 56.1875 31 56.1875C27.9727 56.1875 25.6719 51.8717 22.8407 50.6947C20.0991 49.5613 15.4177 51.0386 13.1895 48.8105C10.9614 46.5823 12.4388 41.9009 11.3053 39.1593C10.1283 36.3281 5.8125 34.0273 5.8125 31C5.8125 27.9727 10.1283 25.6719 11.3053 22.8407C12.4388 20.1016 10.9614 15.4177 13.1895 13.1895C15.4177 10.9614 20.1016 12.4388 22.8407 11.3053C25.684 10.1283 27.9727 5.8125 31 5.8125C34.0273 5.8125 36.3281 10.1283 39.1593 11.3053C41.9009 12.4388 46.5823 10.9614 48.8105 13.1895C51.0386 15.4177 49.5613 20.0991 50.6947 22.8407C51.8717 25.684 56.1875 27.9727 56.1875 31Z" fill="#4ADE80"/>
<path d="M54.7005 24.9017C53.7874 23.9475 52.8429 22.9642 52.4869 22.0996C52.1575 21.3077 52.1381 19.995 52.1187 18.7235C52.0824 16.3598 52.0437 13.6812 50.1812 11.8187C48.3188 9.95633 45.6402 9.91758 43.2765 9.88125C42.005 9.86187 40.6923 9.8425 39.9004 9.51312C39.0382 9.15711 38.0525 8.21258 37.0983 7.29953C35.4272 5.69383 33.5284 3.875 31 3.875C28.4716 3.875 26.5752 5.69383 24.9017 7.29953C23.9475 8.21258 22.9642 9.15711 22.0996 9.51312C21.3125 9.8425 19.995 9.86187 18.7235 9.88125C16.3598 9.91758 13.6812 9.95633 11.8187 11.8187C9.95633 13.6812 9.92969 16.3598 9.88125 18.7235C9.86187 19.995 9.8425 21.3077 9.51312 22.0996C9.15711 22.9618 8.21258 23.9475 7.29953 24.9017C5.69383 26.5728 3.875 28.4716 3.875 31C3.875 33.5284 5.69383 35.4248 7.29953 37.0983C8.21258 38.0525 9.15711 39.0358 9.51312 39.9004C9.8425 40.6923 9.86187 42.005 9.88125 43.2765C9.91758 45.6402 9.95633 48.3188 11.8187 50.1812C13.6812 52.0437 16.3598 52.0824 18.7235 52.1187C19.995 52.1381 21.3077 52.1575 22.0996 52.4869C22.9618 52.8429 23.9475 53.7874 24.9017 54.7005C26.5728 56.3062 28.4716 58.125 31 58.125C33.5284 58.125 35.4248 56.3062 37.0983 54.7005C38.0525 53.7874 39.0358 52.8429 39.9004 52.4869C40.6923 52.1575 42.005 52.1381 43.2765 52.1187C45.6402 52.0824 48.3188 52.0437 50.1812 50.1812C52.0437 48.3188 52.0824 45.6402 52.1187 43.2765C52.1381 42.005 52.1575 40.6923 52.4869 39.9004C52.8429 39.0382 53.7874 38.0525 54.7005 37.0983C56.3062 35.4272 58.125 33.5284 58.125 31C58.125 28.4716 56.3062 26.5752 54.7005 24.9017ZM51.9032 34.4173C50.7431 35.6282 49.5419 36.8803 48.9049 38.4182C48.2946 39.8955 48.268 41.5836 48.2437 43.2184C48.2195 44.9137 48.1929 46.6889 47.4397 47.4397C46.6865 48.1905 44.9234 48.2195 43.2184 48.2437C41.5836 48.268 39.8955 48.2946 38.4182 48.9049C36.8803 49.5419 35.6282 50.7431 34.4173 51.9032C33.2063 53.0633 31.9688 54.25 31 54.25C30.0312 54.25 28.784 53.0584 27.5827 51.9032C26.3815 50.748 25.1197 49.5419 23.5818 48.9049C22.1045 48.2946 20.4164 48.268 18.7816 48.2437C17.0863 48.2195 15.3111 48.1929 14.5603 47.4397C13.8095 46.6865 13.7805 44.9234 13.7562 43.2184C13.732 41.5836 13.7054 39.8955 13.0951 38.4182C12.4581 36.8803 11.2569 35.6282 10.0968 34.4173C8.93672 33.2063 7.75 31.9688 7.75 31C7.75 30.0312 8.94156 28.784 10.0968 27.5827C11.252 26.3815 12.4581 25.1197 13.0951 23.5818C13.7054 22.1045 13.732 20.4164 13.7562 18.7816C13.7805 17.0863 13.8071 15.3111 14.5603 14.5603C15.3135 13.8095 17.0766 13.7805 18.7816 13.7562C20.4164 13.732 22.1045 13.7054 23.5818 13.0951C25.1197 12.4581 26.3718 11.2569 27.5827 10.0968C28.7937 8.93672 30.0312 7.75 31 7.75C31.9688 7.75 33.216 8.94156 34.4173 10.0968C35.6185 11.252 36.8803 12.4581 38.4182 13.0951C39.8955 13.7054 41.5836 13.732 43.2184 13.7562C44.9137 13.7805 46.6889 13.8071 47.4397 14.5603C48.1905 15.3135 48.2195 17.0766 48.2437 18.7816C48.268 20.4164 48.2946 22.1045 48.9049 23.5818C49.5419 25.1197 50.7431 26.3718 51.9032 27.5827C53.0633 28.7937 54.25 30.0312 54.25 31C54.25 31.9688 53.0584 33.216 51.9032 34.4173ZM42.0583 23.8167C42.2384 23.9967 42.3813 24.2103 42.4788 24.4456C42.5763 24.6808 42.6265 24.9329 42.6265 25.1875C42.6265 25.4421 42.5763 25.6942 42.4788 25.9294C42.3813 26.1647 42.2384 26.3783 42.0583 26.5583L28.4958 40.1208C28.3158 40.3009 28.1022 40.4438 27.8669 40.5413C27.6317 40.6388 27.3796 40.689 27.125 40.689C26.8704 40.689 26.6183 40.6388 26.3831 40.5413C26.1478 40.4438 25.9342 40.3009 25.7542 40.1208L19.9417 34.3083C19.5782 33.9447 19.3739 33.4516 19.3739 32.9375C19.3739 32.4234 19.5782 31.9303 19.9417 31.5667C20.3053 31.2032 20.7984 30.9989 21.3125 30.9989C21.8266 30.9989 22.3197 31.2032 22.6833 31.5667L27.125 36.0109L39.3167 23.8167C39.4967 23.6366 39.7103 23.4937 39.9456 23.3962C40.1808 23.2987 40.4329 23.2485 40.6875 23.2485C40.9421 23.2485 41.1942 23.2987 41.4294 23.3962C41.6647 23.4937 41.8783 23.6366 42.0583 23.8167Z" fill="#4ADE80"/>
</svg>
