<svg width="110" height="110" viewBox="0 0 110 110" fill="none" xmlns="http://www.w3.org/2000/svg">
<rect y="47" width="73" height="63" rx="18" fill="#F4F8FF"/>
<path opacity="0.2" d="M56.5625 62.3438C56.5625 64.6924 55.866 66.9883 54.5612 68.9412C53.2564 70.894 51.4017 72.416 49.2319 73.3148C47.062 74.2136 44.6743 74.4488 42.3708 73.9906C40.0673 73.5324 37.9514 72.4014 36.2906 70.7406C34.6299 69.0799 33.4989 66.964 33.0407 64.6605C32.5825 62.3569 32.8176 59.9693 33.7164 57.7994C34.6152 55.6295 36.1373 53.7749 38.0901 52.4701C40.0429 51.1652 42.3389 50.4688 44.6875 50.4688C47.837 50.4688 50.8574 51.7199 53.0844 53.9469C55.3114 56.1739 56.5625 59.1943 56.5625 62.3438ZM44.6875 11.875C42.3389 11.875 40.0429 12.5715 38.0901 13.8763C36.1373 15.1811 34.6152 17.0358 33.7164 19.2056C32.8176 21.3755 32.5825 23.7632 33.0407 26.0667C33.4989 28.3702 34.6299 30.4862 36.2906 32.1469C37.9514 33.8076 40.0673 34.9386 42.3708 35.3968C44.6743 35.855 47.062 35.6199 49.2319 34.7211C51.4017 33.8223 53.2564 32.3002 54.5612 30.3474C55.866 28.3946 56.5625 26.0987 56.5625 23.75C56.5625 20.6006 55.3114 17.5801 53.0844 15.3531C50.8574 13.1261 47.837 11.875 44.6875 11.875ZM80.3125 50.4688C77.9639 50.4688 75.6679 51.1652 73.7151 52.4701C71.7623 53.7749 70.2402 55.6295 69.3414 57.7994C68.4426 59.9693 68.2075 62.3569 68.6657 64.6605C69.1239 66.964 70.2549 69.0799 71.9156 70.7406C73.5764 72.4014 75.6923 73.5324 77.9958 73.9906C80.2993 74.4488 82.687 74.2136 84.8569 73.3148C87.0267 72.416 88.8814 70.894 90.1862 68.9412C91.491 66.9883 92.1875 64.6924 92.1875 62.3438C92.1875 59.1943 90.9364 56.1739 88.7094 53.9469C86.4824 51.7199 83.462 50.4688 80.3125 50.4688ZM80.3125 35.625C82.6612 35.625 84.9571 34.9285 86.9099 33.6237C88.8627 32.3189 90.3848 30.4642 91.2836 28.2944C92.1824 26.1245 92.4175 23.7368 91.9593 21.4333C91.5011 19.1298 90.3701 17.0139 88.7094 15.3531C87.0486 13.6924 84.9327 12.5614 82.6292 12.1032C80.3257 11.645 77.938 11.8801 75.7681 12.7789C73.5983 13.6777 71.7436 15.1998 70.4388 17.1526C69.134 19.1054 68.4375 21.4014 68.4375 23.75C68.4375 26.8995 69.6886 29.9199 71.9156 32.1469C74.1426 34.3739 77.1631 35.625 80.3125 35.625Z" fill="#3D71DE"/>
<path d="M25.0938 46.9062C25.4056 47.1401 25.7605 47.3103 26.1382 47.4071C26.5159 47.5038 26.9089 47.5252 27.2948 47.4701C27.6808 47.415 28.0521 47.2844 28.3876 47.0857C28.723 46.8871 29.0161 46.6243 29.25 46.3125C31.0474 43.9159 33.3782 41.9707 36.0577 40.6309C38.7372 39.2912 41.6918 38.5937 44.6875 38.5937C47.6832 38.5937 50.6378 39.2912 53.3173 40.6309C55.9968 41.9707 58.3276 43.9159 60.125 46.3125C60.598 46.9418 61.3015 47.3575 62.0809 47.4681C62.8604 47.5788 63.6518 47.3753 64.2813 46.9025C64.5056 46.7356 64.7044 46.5368 64.8713 46.3125C66.6687 43.9159 68.9995 41.9707 71.679 40.6309C74.3584 39.2912 77.313 38.5937 80.3088 38.5937C83.3045 38.5937 86.2591 39.2912 88.9386 40.6309C91.6181 41.9707 93.9488 43.9159 95.7463 46.3125C96.2192 46.9423 96.923 47.3586 97.7028 47.4696C98.4826 47.5806 99.2745 47.3773 99.9044 46.9043C100.534 46.4314 100.951 45.7277 101.062 44.9479C101.173 44.1681 100.969 43.3761 100.496 42.7462C97.8684 39.2233 94.3642 36.4496 90.332 34.7009C92.5426 32.6827 94.0913 30.0433 94.775 27.1291C95.4587 24.2149 95.2454 21.1622 94.163 18.3714C93.0807 15.5806 91.1799 13.1823 88.7101 11.4911C86.2403 9.79998 83.3169 8.89502 80.3236 8.89502C77.3303 8.89502 74.407 9.79998 71.9372 11.4911C69.4674 13.1823 67.5666 15.5806 66.4843 18.3714C65.4019 21.1622 65.1886 24.2149 65.8722 27.1291C66.5559 30.0433 68.1047 32.6827 70.3152 34.7009C67.4038 35.9599 64.759 37.7621 62.5223 40.0113C60.2856 37.7621 57.6407 35.9599 54.7293 34.7009C56.9399 32.6827 58.4886 30.0433 59.1723 27.1291C59.856 24.2149 59.6426 21.1622 58.5603 18.3714C57.4779 15.5806 55.5771 13.1823 53.1073 11.4911C50.6376 9.79998 47.7142 8.89502 44.7209 8.89502C41.7276 8.89502 38.8042 9.79998 36.3345 11.4911C33.8647 13.1823 31.9639 15.5806 30.8815 18.3714C29.7992 21.1622 29.5858 24.2149 30.2695 27.1291C30.9532 30.0433 32.5019 32.6827 34.7125 34.7009C30.6626 36.4439 27.1411 39.2194 24.5 42.7499C24.2661 43.0618 24.0959 43.4167 23.9991 43.7944C23.9024 44.1721 23.881 44.5651 23.9361 44.951C23.9912 45.337 24.1218 45.7083 24.3205 46.0438C24.5191 46.3792 24.7819 46.6723 25.0938 46.9062ZM80.3125 14.8437C82.074 14.8437 83.7959 15.366 85.2605 16.3447C86.7252 17.3233 87.8667 18.7143 88.5408 20.3417C89.2149 21.9691 89.3913 23.7598 89.0476 25.4875C88.704 27.2151 87.8557 28.8021 86.6102 30.0476C85.3646 31.2932 83.7777 32.1414 82.05 32.4851C80.3224 32.8287 78.5316 32.6523 76.9042 31.9783C75.2768 31.3042 73.8859 30.1626 72.9072 28.698C71.9286 27.2334 71.4062 25.5114 71.4062 23.75C71.4062 21.3879 72.3446 19.1225 74.0148 17.4523C75.6851 15.782 77.9504 14.8437 80.3125 14.8437ZM44.6875 14.8437C46.449 14.8437 48.1709 15.366 49.6355 16.3447C51.1002 17.3233 52.2417 18.7143 52.9158 20.3417C53.5899 21.9691 53.7663 23.7598 53.4226 25.4875C53.079 27.2151 52.2307 28.8021 50.9852 30.0476C49.7396 31.2932 48.1527 32.1414 46.425 32.4851C44.6974 32.8287 42.9066 32.6523 41.2792 31.9783C39.6518 31.3042 38.2609 30.1626 37.2822 28.698C36.3036 27.2334 35.7812 25.5114 35.7812 23.75C35.7812 21.3879 36.7196 19.1225 38.3898 17.4523C40.0601 15.782 42.3254 14.8437 44.6875 14.8437ZM90.332 73.2947C92.5426 71.2764 94.0913 68.637 94.775 65.7229C95.4587 62.8087 95.2454 59.7559 94.163 56.9651C93.0807 54.1744 91.1799 51.776 88.7101 50.0849C86.2403 48.3937 83.3169 47.4888 80.3236 47.4888C77.3303 47.4888 74.407 48.3937 71.9372 50.0849C69.4674 51.776 67.5666 54.1744 66.4843 56.9651C65.4019 59.7559 65.1886 62.8087 65.8722 65.7229C66.5559 68.637 68.1047 71.2764 70.3152 73.2947C67.4038 74.5536 64.759 76.3559 62.5223 78.605C60.2856 76.3559 57.6407 74.5536 54.7293 73.2947C56.9399 71.2764 58.4886 68.637 59.1723 65.7229C59.856 62.8087 59.6426 59.7559 58.5603 56.9651C57.4779 54.1744 55.5771 51.776 53.1073 50.0849C50.6376 48.3937 47.7142 47.4888 44.7209 47.4888C41.7276 47.4888 38.8042 48.3937 36.3345 50.0849C33.8647 51.776 31.9639 54.1744 30.8815 56.9651C29.7992 59.7559 29.5858 62.8087 30.2695 65.7229C30.9532 68.637 32.5019 71.2764 34.7125 73.2947C30.6626 75.0377 27.1411 77.8132 24.5 81.3437C24.2661 81.6556 24.0959 82.0105 23.9991 82.3882C23.9024 82.7658 23.881 83.1589 23.9361 83.5448C23.9912 83.9307 24.1218 84.302 24.3205 84.6375C24.5191 84.973 24.7819 85.266 25.0938 85.4999C25.4056 85.7339 25.7605 85.9041 26.1382 86.0008C26.5159 86.0976 26.9089 86.119 27.2948 86.0639C27.6808 86.0087 28.0521 85.8781 28.3876 85.6795C28.723 85.4808 29.0161 85.2181 29.25 84.9062C31.0474 82.5096 33.3782 80.5644 36.0577 79.2247C38.7372 77.8849 41.6918 77.1874 44.6875 77.1874C47.6832 77.1874 50.6378 77.8849 53.3173 79.2247C55.9968 80.5644 58.3276 82.5096 60.125 84.9062C60.598 85.5355 61.3015 85.9512 62.0809 86.0619C62.8604 86.1725 63.6518 85.969 64.2813 85.4962C64.5056 85.3294 64.7044 85.1306 64.8713 84.9062C66.6687 82.5096 68.9995 80.5644 71.679 79.2247C74.3584 77.8849 77.313 77.1874 80.3088 77.1874C83.3045 77.1874 86.2591 77.8849 88.9386 79.2247C91.6181 80.5644 93.9488 82.5096 95.7463 84.9062C96.2192 85.5361 96.923 85.9523 97.7028 86.0633C98.4826 86.1743 99.2745 85.971 99.9044 85.4981C100.534 85.0252 100.951 84.3214 101.062 83.5416C101.173 82.7618 100.969 81.9699 100.496 81.34C97.8684 77.8171 94.3642 75.0434 90.332 73.2947ZM44.6875 53.4375C46.449 53.4375 48.1709 53.9598 49.6355 54.9384C51.1002 55.9171 52.2417 57.308 52.9158 58.9354C53.5899 60.5628 53.7663 62.3536 53.4226 64.0812C53.079 65.8089 52.2307 67.3958 50.9852 68.6414C49.7396 69.8869 48.1527 70.7352 46.425 71.0788C44.6974 71.4225 42.9066 71.2461 41.2792 70.572C39.6518 69.8979 38.2609 68.7564 37.2822 67.2917C36.3036 65.8271 35.7812 64.1052 35.7812 62.3437C35.7812 59.9816 36.7196 57.7163 38.3898 56.046C40.0601 54.3758 42.3254 53.4375 44.6875 53.4375ZM80.3125 53.4375C82.074 53.4375 83.7959 53.9598 85.2605 54.9384C86.7252 55.9171 87.8667 57.308 88.5408 58.9354C89.2149 60.5628 89.3913 62.3536 89.0476 64.0812C88.704 65.8089 87.8557 67.3958 86.6102 68.6414C85.3646 69.8869 83.7777 70.7352 82.05 71.0788C80.3224 71.4225 78.5316 71.2461 76.9042 70.572C75.2768 69.8979 73.8859 68.7564 72.9072 67.2917C71.9286 65.8271 71.4062 64.1052 71.4062 62.3437C71.4062 59.9816 72.3446 57.7163 74.0148 56.046C75.6851 54.3758 77.9504 53.4375 80.3125 53.4375Z" fill="#3D71DE"/>
</svg>
