<svg width="64" height="64" viewBox="0 0 64 64" fill="none" xmlns="http://www.w3.org/2000/svg">
<path opacity="0.2" d="M32 26H8V14H32V26ZM44 26V38H32V50H56V26H44Z" fill="#F75555"/>
<path d="M56 12H8C7.46957 12 6.96086 12.2107 6.58579 12.5858C6.21071 12.9609 6 13.4696 6 14V50C6 50.5304 6.21071 51.0391 6.58579 51.4142C6.96086 51.7893 7.46957 52 8 52H56C56.5304 52 57.0391 51.7893 57.4142 51.4142C57.7893 51.0391 58 50.5304 58 50V14C58 13.4696 57.7893 12.9609 57.4142 12.5858C57.0391 12.2107 56.5304 12 56 12ZM22 36V28H42V36H22ZM10 36V28H18V36H10ZM46 28H54V36H46V28ZM54 24H34V16H54V24ZM30 16V24H10V16H30ZM10 40H30V48H10V40ZM34 48V40H54V48H34Z" fill="#F75555"/>
</svg>
